<svg xmlns="http://www.w3.org/2000/svg" viewBox="0 0 504 324"><defs><style>.cls-1,.cls-2,.cls-4,.cls-6,.cls-7,.cls-8{fill:none;stroke-miterlimit:10;}.cls-1{stroke:#1b75bc;}.cls-2{stroke:#ef4136;}.cls-3{fill:#fff;}.cls-4,.cls-6,.cls-7,.cls-8{stroke:#808285;stroke-width:2px;}.cls-133,.cls-150,.cls-174,.cls-180,.cls-182,.cls-202,.cls-5{fill:#808285;}.cls-6{stroke-dasharray:8.26 6.2;}.cls-7{stroke-dasharray:7.81 5.86;}.cls-8{stroke-dasharray:6.16 4.62;}.cls-112,.cls-119,.cls-9{font-size:11px;font-weight:700;}.cls-9{fill:#231f20;font-family:Arial-BoldMT, Arial;}.cls-10{letter-spacing:0.02em;}.cls-11{letter-spacing:0em;}.cls-112,.cls-12{letter-spacing:0.01em;}.cls-13{letter-spacing:0em;}.cls-14{letter-spacing:0.01em;}.cls-15{letter-spacing:0.01em;}.cls-16{letter-spacing:0.01em;}.cls-17{letter-spacing:0em;}.cls-18{letter-spacing:0em;}.cls-19{letter-spacing:0.01em;}.cls-20{letter-spacing:0em;}.cls-21{letter-spacing:0.01em;}.cls-22{letter-spacing:0em;}.cls-23{letter-spacing:0.01em;}.cls-24{letter-spacing:0.01em;}.cls-25{letter-spacing:0em;}.cls-26{letter-spacing:0em;}.cls-27{letter-spacing:0em;}.cls-28{letter-spacing:0em;}.cls-29{letter-spacing:-0.01em;}.cls-30{letter-spacing:0em;}.cls-31{letter-spacing:0em;}.cls-32{letter-spacing:0em;}.cls-33{letter-spacing:0em;}.cls-34{letter-spacing:0em;}.cls-35{letter-spacing:0.01em;}.cls-36{letter-spacing:0.02em;}.cls-37{letter-spacing:0.03em;}.cls-38{letter-spacing:0.01em;}.cls-39{letter-spacing:0em;}.cls-40{letter-spacing:0.01em;}.cls-41{letter-spacing:0.01em;}.cls-42{letter-spacing:0em;}.cls-43{letter-spacing:0.01em;}.cls-44{letter-spacing:0.01em;}.cls-45{letter-spacing:0em;}.cls-46{letter-spacing:0.01em;}.cls-47{letter-spacing:0.01em;}.cls-48{letter-spacing:0em;}.cls-49{letter-spacing:0.01em;}.cls-50{letter-spacing:0em;}.cls-51{letter-spacing:0em;}.cls-52{letter-spacing:0.01em;}.cls-53{letter-spacing:0em;}.cls-54{letter-spacing:-0.04em;}.cls-55,.cls-56,.cls-57,.cls-58,.cls-59{fill:#009444;}.cls-112,.cls-119,.cls-55,.cls-56,.cls-57,.cls-58,.cls-59{font-family:Arial-BoldItalicMT, Arial;font-style:italic;}.cls-55{letter-spacing:0em;}.cls-56{letter-spacing:0em;}.cls-57{letter-spacing:-0.02em;}.cls-58{letter-spacing:-0.01em;}.cls-59{letter-spacing:0.05em;}.cls-60{letter-spacing:0em;}.cls-61{letter-spacing:0.01em;}.cls-62{letter-spacing:0em;}.cls-63{letter-spacing:0.01em;}.cls-64{letter-spacing:-0.01em;}.cls-65{letter-spacing:-0.01em;}.cls-66{letter-spacing:-0.03em;}.cls-67{letter-spacing:0em;}.cls-68{letter-spacing:-0.01em;}.cls-69{letter-spacing:0em;}.cls-70{letter-spacing:-0.01em;}.cls-71{letter-spacing:0.01em;}.cls-72{letter-spacing:0em;}.cls-73{letter-spacing:-0.02em;}.cls-74{letter-spacing:0.01em;}.cls-75{letter-spacing:-0.03em;}.cls-76{letter-spacing:0em;}.cls-77{letter-spacing:0em;}.cls-78{letter-spacing:0em;}.cls-79{letter-spacing:0.01em;}.cls-80{letter-spacing:0em;}.cls-81{letter-spacing:0.01em;}.cls-82{letter-spacing:0em;}.cls-83{letter-spacing:-0.04em;}.cls-84{letter-spacing:0em;}.cls-85{letter-spacing:0em;}.cls-86{letter-spacing:0em;}.cls-87{letter-spacing:0.02em;}.cls-88{letter-spacing:-0.01em;}.cls-89{letter-spacing:-0.01em;}.cls-90{letter-spacing:0em;}.cls-91{letter-spacing:-0.01em;}.cls-92{letter-spacing:0.01em;}.cls-93{letter-spacing:0.01em;}.cls-94{letter-spacing:0em;}.cls-95{letter-spacing:0em;}.cls-96{letter-spacing:0em;}.cls-97{letter-spacing:0em;}.cls-98{letter-spacing:-0.01em;}.cls-99{letter-spacing:0.02em;}.cls-100{letter-spacing:0.03em;}.cls-101{letter-spacing:0em;}.cls-102{letter-spacing:0.01em;}.cls-103{letter-spacing:0.01em;}.cls-104{letter-spacing:0.01em;}.cls-105{letter-spacing:0.01em;}.cls-106{letter-spacing:0em;}.cls-107{letter-spacing:0.01em;}.cls-108{letter-spacing:0.03em;}.cls-109{letter-spacing:0.02em;}.cls-110{letter-spacing:0.01em;}.cls-111{letter-spacing:-0.02em;}.cls-112{fill:#1b75bc;}.cls-113{letter-spacing:0.01em;}.cls-114{letter-spacing:0.01em;}.cls-115{letter-spacing:0.02em;}.cls-116{letter-spacing:0.01em;}.cls-117{letter-spacing:0.04em;}.cls-118{letter-spacing:0.01em;}.cls-119{fill:#ef4136;letter-spacing:0.01em;}.cls-120{letter-spacing:0.01em;}.cls-121{letter-spacing:0.02em;}.cls-122{letter-spacing:0.01em;}.cls-123{letter-spacing:0.02em;}.cls-124{letter-spacing:0.02em;}.cls-125{letter-spacing:-0.01em;}.cls-126{letter-spacing:0.02em;}.cls-127{letter-spacing:0.01em;}.cls-128{letter-spacing:0.01em;}.cls-129{letter-spacing:0em;}.cls-130{letter-spacing:0.01em;}.cls-131{letter-spacing:0.02em;}.cls-132{letter-spacing:0.01em;}.cls-133,.cls-150{font-size:9px;}.cls-133,.cls-150,.cls-174,.cls-180,.cls-182,.cls-202{font-family:ArialMT, Arial;}.cls-133{letter-spacing:0.02em;}.cls-134{letter-spacing:0.01em;}.cls-135{letter-spacing:0.01em;}.cls-136{letter-spacing:0.02em;}.cls-137{letter-spacing:0.02em;}.cls-138{letter-spacing:0.01em;}.cls-139{letter-spacing:0.03em;}.cls-140{letter-spacing:0.02em;}.cls-141{letter-spacing:0.02em;}.cls-142{letter-spacing:0.02em;}.cls-143{letter-spacing:0.02em;}.cls-144{letter-spacing:0.02em;}.cls-145{letter-spacing:0.02em;}.cls-146{letter-spacing:0.02em;}.cls-147{letter-spacing:0.01em;}.cls-148{letter-spacing:0.02em;}.cls-149{letter-spacing:0.02em;}.cls-150{letter-spacing:0.04em;}.cls-151{letter-spacing:0.02em;}.cls-152{letter-spacing:0.02em;}.cls-153{letter-spacing:0.02em;}.cls-154{letter-spacing:0.01em;}.cls-155{letter-spacing:0.02em;}.cls-156{letter-spacing:0.02em;}.cls-157{letter-spacing:0.02em;}.cls-158{letter-spacing:0.01em;}.cls-159{letter-spacing:0.01em;}.cls-160{letter-spacing:0.02em;}.cls-161{letter-spacing:0.02em;}.cls-162{letter-spacing:0.01em;}.cls-163{letter-spacing:0.01em;}.cls-164{letter-spacing:0.03em;}.cls-165{letter-spacing:0.01em;}.cls-166{letter-spacing:0.02em;}.cls-167{letter-spacing:0.02em;}.cls-168{letter-spacing:0.01em;}.cls-169{letter-spacing:0.02em;}.cls-170{letter-spacing:0.01em;}.cls-171{letter-spacing:0.03em;}.cls-172{letter-spacing:0.02em;}.cls-173{letter-spacing:0.02em;}.cls-174,.cls-180,.cls-182,.cls-202{font-size:10px;}.cls-174{letter-spacing:0.01em;}.cls-175{letter-spacing:0em;}.cls-176{letter-spacing:0.01em;}.cls-177{letter-spacing:0em;}.cls-178{letter-spacing:0.01em;}.cls-179{letter-spacing:0.01em;}.cls-180{letter-spacing:0em;}.cls-181{letter-spacing:0.01em;}.cls-182{letter-spacing:0.02em;}.cls-183{letter-spacing:0.01em;}.cls-184{letter-spacing:0.01em;}.cls-185{letter-spacing:0.01em;}.cls-186{letter-spacing:0.01em;}.cls-187{letter-spacing:0.01em;}.cls-188{letter-spacing:0.02em;}.cls-189{letter-spacing:0.01em;}.cls-190{letter-spacing:0.02em;}.cls-191{letter-spacing:0.02em;}.cls-192{letter-spacing:0.02em;}.cls-193{letter-spacing:0.03em;}.cls-194{letter-spacing:0.01em;}.cls-195{letter-spacing:0.01em;}.cls-196{letter-spacing:0.01em;}.cls-197{letter-spacing:0.01em;}.cls-198{letter-spacing:0.02em;}.cls-199{letter-spacing:0.01em;}.cls-200{letter-spacing:0.01em;}.cls-201{letter-spacing:0.01em;}.cls-202{letter-spacing:0.01em;}.cls-203{letter-spacing:0.01em;}.cls-204{letter-spacing:0.02em;}.cls-205{letter-spacing:0.01em;}.cls-206{letter-spacing:0em;}.cls-207{letter-spacing:0.01em;}.cls-208{letter-spacing:0.01em;}.cls-209{letter-spacing:0.02em;}.cls-210{letter-spacing:0.01em;}.cls-211{letter-spacing:0.01em;}.cls-212{letter-spacing:0.02em;}</style></defs><title>SRNArticle_Figure_ForWeb_Rev1018</title><g id="Boxes"><rect class="cls-1" x="18" y="18" width="269.27" height="126" rx="9" ry="9"/><rect class="cls-2" x="345" y="180" width="132" height="126" rx="9" ry="9"/><rect class="cls-3" x="88.13" y="141" width="33.4" height="6.67"/><rect class="cls-3" x="281.23" y="131.27" width="10.91" height="10.91" transform="translate(149.96 423.42) rotate(-90)"/><rect class="cls-3" x="285.19" y="87.44" width="4.67" height="9.41"/><rect class="cls-3" x="285.19" y="32.39" width="4.67" height="9.41"/><rect class="cls-3" x="340.29" y="182.32" width="12.44" height="12.44"/><rect class="cls-3" x="340.76" y="261.12" width="8.07" height="10.57"/></g><g id="Arrows"><line class="cls-4" x1="104.83" y1="44.76" x2="104.83" y2="77.79"/><polygon class="cls-5" points="101.13 74.99 104.83 76.56 108.54 74.99 104.83 83.76 101.13 74.99"/><line class="cls-4" x1="138.91" y1="92.2" x2="199.17" y2="92.2"/><polygon class="cls-5" points="196.37 95.9 197.94 92.2 196.37 88.49 205.14 92.2 196.37 95.9"/><line class="cls-4" x1="281.95" y1="92.2" x2="348.03" y2="92.2"/><polygon class="cls-5" points="345.22 95.9 346.8 92.2 345.22 88.49 354 92.2 345.22 95.9"/><line class="cls-4" x1="95.32" y1="197.67" x2="95.32" y2="227.06"/><polygon class="cls-5" points="91.61 224.25 95.32 225.83 99.02 224.25 95.32 233.03 91.61 224.25"/><line class="cls-4" x1="114.35" y1="203.64" x2="114.35" y2="233.03"/><polygon class="cls-5" points="110.64 206.44 114.35 204.87 118.05 206.44 114.35 197.67 110.64 206.44"/><line class="cls-4" x1="95.32" y1="250.33" x2="95.32" y2="277.98"/><polygon class="cls-5" points="91.61 275.17 95.32 276.74 99.02 275.17 95.32 283.95 91.61 275.17"/><line class="cls-4" x1="114.35" y1="256.3" x2="114.35" y2="283.95"/><polygon class="cls-5" points="110.64 259.1 114.35 257.53 118.05 259.1 114.35 250.32 110.64 259.1"/><line class="cls-4" x1="95.32" y1="101.86" x2="95.32" y2="156.36"/><polygon class="cls-5" points="91.61 153.56 95.32 155.13 99.02 153.56 95.32 162.33 91.61 153.56"/><line class="cls-4" x1="243.72" y1="101.86" x2="373.78" y2="211.95"/><polygon class="cls-5" points="369.24 212.97 372.83 211.16 374.03 207.31 378.33 215.81 369.24 212.97"/><line class="cls-4" x1="114.35" y1="107.83" x2="114.35" y2="162.33"/><polygon class="cls-5" points="110.64 110.64 114.35 109.07 118.05 110.64 114.35 101.86 110.64 110.64"/><line class="cls-4" x1="141.47" y1="293.48" x2="145.44" y2="292.95"/><line class="cls-6" x1="151.58" y1="292.13" x2="349.17" y2="265.66"/><line class="cls-4" x1="352.24" y1="265.25" x2="356.2" y2="264.72"/><polygon class="cls-5" points="353.91 268.76 354.98 264.88 352.93 261.42 362.12 263.92 353.91 268.76"/><line class="cls-4" x1="178.33" y1="37.09" x2="182.33" y2="37.09"/><line class="cls-7" x1="188.19" y1="37.09" x2="404.07" y2="37.09"/><polyline class="cls-4" points="407 37.09 411 37.09 411 41.09"/><line class="cls-8" x1="411" y1="45.71" x2="411" y2="64.97"/><line class="cls-4" x1="411" y1="67.29" x2="411" y2="71.29"/><polygon class="cls-5" points="181.14 40.8 179.56 37.09 181.14 33.39 172.36 37.09 181.14 40.8"/></g><g id="Main_Text" data-name="Main Text"><text class="cls-9" transform="translate(41.14 40)"><tspan class="cls-10">E</tspan><tspan class="cls-11" x="7.52" y="0">x</tspan><tspan class="cls-12" x="13.67" y="0">p</tspan><tspan class="cls-13" x="20.53" y="0">e</tspan><tspan class="cls-14" x="26.7" y="0">r</tspan><tspan class="cls-15" x="31.11" y="0">i</tspan><tspan class="cls-16" x="34.22" y="0">m</tspan><tspan class="cls-17" x="44.1" y="0">e</tspan><tspan class="cls-18" x="50.24" y="0">n</tspan><tspan class="cls-19" x="56.99" y="0">t</tspan><tspan class="cls-20" x="60.79" y="0">a</tspan><tspan x="66.94" y="0">l </tspan><tspan class="cls-21" x="73.06" y="0">p</tspan><tspan class="cls-22" x="79.86" y="0">r</tspan><tspan class="cls-23" x="84.13" y="0">o</tspan><tspan class="cls-24" x="90.91" y="0">c</tspan><tspan class="cls-25" x="97.14" y="0">e</tspan><tspan class="cls-26" x="103.31" y="0">d</tspan><tspan class="cls-27" x="110.07" y="0">u</tspan><tspan class="cls-28" x="116.83" y="0">r</tspan><tspan x="121.15" y="0">e</tspan></text><text class="cls-9" transform="translate(74.19 96.2)"><tspan class="cls-29">R</tspan><tspan class="cls-30" x="7.84" y="0">u</tspan><tspan x="14.56" y="0">n </tspan><tspan class="cls-31" x="24.34" y="0">E</tspan><tspan class="cls-32" x="31.69" y="0">n</tspan><tspan class="cls-33" x="38.45" y="0">g</tspan><tspan class="cls-34" x="45.19" y="0">i</tspan><tspan class="cls-35" x="48.26" y="0">n</tspan><tspan x="55.05" y="0">e</tspan></text><text class="cls-9" transform="translate(51.15 177.93)"><tspan class="cls-36">P</tspan><tspan class="cls-37" x="7.53" y="0">y</tspan><tspan class="cls-38" x="13.93" y="0">t</tspan><tspan class="cls-39" x="17.71" y="0">h</tspan><tspan class="cls-11" x="24.46" y="0">o</tspan><tspan x="31.22" y="0">n </tspan><tspan class="cls-40" x="40.99" y="0">a</tspan><tspan class="cls-41" x="47.19" y="0">b</tspan><tspan class="cls-42" x="54" y="0">s</tspan><tspan class="cls-43" x="60.13" y="0">t</tspan><tspan class="cls-44" x="63.95" y="0">r</tspan><tspan class="cls-45" x="68.29" y="0">a</tspan><tspan class="cls-46" x="74.43" y="0">c</tspan><tspan class="cls-47" x="80.7" y="0">t</tspan><tspan class="cls-48" x="84.5" y="0">i</tspan><tspan class="cls-11" x="87.6" y="0">o</tspan><tspan class="cls-49" x="94.36" y="0">n</tspan><tspan x="101.13" y="0">s</tspan><tspan class="cls-50" x="0.67" y="13.2">o</tspan><tspan x="7.4" y="13.2">f </tspan><tspan class="cls-51" x="14.12" y="13.2">h</tspan><tspan class="cls-40" x="20.87" y="13.2">a</tspan><tspan class="cls-42" x="27.07" y="13.2">r</tspan><tspan class="cls-52" x="31.36" y="13.2">d</tspan><tspan class="cls-53" x="38.17" y="13.2">w</tspan><tspan class="cls-40" x="46.71" y="13.2">a</tspan><tspan class="cls-28" x="52.9" y="13.2">r</tspan><tspan x="57.23" y="13.2">e </tspan><tspan class="cls-54" x="66.4" y="13.2">(</tspan><tspan class="cls-55" x="69.61" y="13.2">o</tspan><tspan class="cls-56" x="76.34" y="13.2">p</tspan><tspan class="cls-57" x="83.09" y="13.2">h</tspan><tspan class="cls-58" x="89.63" y="13.2">y</tspan><tspan class="cls-59" x="95.63" y="13.2">d</tspan><tspan x="102.92" y="13.2">)</tspan></text><text class="cls-9" transform="translate(36.54 245.23)"><tspan class="cls-60">C</tspan><tspan class="cls-11" x="7.92" y="0">o</tspan><tspan class="cls-18" x="14.68" y="0">n</tspan><tspan class="cls-61" x="21.43" y="0">t</tspan><tspan class="cls-62" x="25.24" y="0">r</tspan><tspan class="cls-26" x="29.5" y="0">o</tspan><tspan x="36.26" y="0">l </tspan><tspan class="cls-63" x="42.38" y="0">L</tspan><tspan class="cls-64" x="49.22" y="0">a</tspan><tspan class="cls-65" x="55.22" y="0">y</tspan><tspan class="cls-13" x="61.19" y="0">e</tspan><tspan x="67.36" y="0">r </tspan><tspan class="cls-66" x="74.69" y="0">(</tspan><tspan class="cls-67" x="78.06" y="0">e</tspan><tspan class="cls-68" x="84.16" y="0">.</tspan><tspan class="cls-69" x="87.13" y="0">g</tspan><tspan x="93.9" y="0">. </tspan><tspan class="cls-69" x="100.01" y="0">E</tspan><tspan class="cls-70" x="107.4" y="0">P</tspan><tspan class="cls-71" x="114.62" y="0">I</tspan><tspan class="cls-72" x="117.77" y="0">C</tspan><tspan class="cls-73" x="125.73" y="0">S</tspan><tspan x="132.8" y="0">)</tspan></text><text class="cls-9" transform="translate(79.53 295.71)"><tspan class="cls-74">Ha</tspan><tspan class="cls-42" x="14.2" y="0">r</tspan><tspan class="cls-52" x="18.5" y="0">d</tspan><tspan class="cls-53" x="25.31" y="0">w</tspan><tspan class="cls-40" x="33.85" y="0">a</tspan><tspan class="cls-28" x="40.04" y="0">r</tspan><tspan x="44.37" y="0">e</tspan><tspan class="cls-75" x="-35.99" y="13.2">(</tspan><tspan class="cls-67" x="-32.62" y="13.2">e</tspan><tspan class="cls-68" x="-26.52" y="13.2">.</tspan><tspan class="cls-76" x="-23.55" y="13.2">g</tspan><tspan x="-16.78" y="13.2">. </tspan><tspan class="cls-77" x="-10.67" y="13.2">m</tspan><tspan class="cls-78" x="-0.84" y="13.2">ot</tspan><tspan class="cls-44" x="9.58" y="13.2">o</tspan><tspan class="cls-79" x="16.37" y="13.2">r</tspan><tspan x="20.77" y="13.2">s, </tspan><tspan class="cls-12" x="33" y="13.2">d</tspan><tspan class="cls-80" x="39.86" y="13.2">e</tspan><tspan class="cls-81" x="46" y="13.2">t</tspan><tspan class="cls-13" x="49.76" y="13.2">e</tspan><tspan class="cls-46" x="55.93" y="13.2">c</tspan><tspan class="cls-82" x="62.2" y="13.2">t</tspan><tspan class="cls-44" x="65.89" y="13.2">o</tspan><tspan class="cls-79" x="72.68" y="13.2">r</tspan><tspan class="cls-83" x="77.08" y="13.2">s</tspan><tspan x="82.81" y="13.2">)</tspan></text><text class="cls-9" transform="translate(208.06 96.2)"><tspan class="cls-44">“</tspan><tspan class="cls-84" x="5.56" y="0">D</tspan><tspan class="cls-44" x="13.55" y="0">o</tspan><tspan class="cls-85" x="20.34" y="0">c</tspan><tspan class="cls-86" x="26.47" y="0">u</tspan><tspan class="cls-16" x="33.25" y="0">m</tspan><tspan class="cls-17" x="43.12" y="0">e</tspan><tspan class="cls-18" x="49.26" y="0">n</tspan><tspan class="cls-87" x="56.01" y="0">t</tspan><tspan class="cls-88" x="59.85" y="0">s</tspan><tspan x="65.82" y="0">”</tspan></text><text class="cls-9" transform="translate(355.98 81.8)"><tspan class="cls-89">L</tspan><tspan class="cls-90" x="6.65" y="0">i</tspan><tspan class="cls-91" x="9.75" y="0">v</tspan><tspan x="15.72" y="0">e </tspan><tspan class="cls-41" x="24.89" y="0">d</tspan><tspan class="cls-26" x="31.71" y="0">a</tspan><tspan class="cls-19" x="37.87" y="0">t</tspan><tspan x="41.67" y="0">a </tspan><tspan class="cls-92" x="50.84" y="0">p</tspan><tspan class="cls-62" x="57.65" y="0">r</tspan><tspan class="cls-44" x="61.91" y="0">o</tspan><tspan class="cls-24" x="68.69" y="0">c</tspan><tspan class="cls-93" x="74.93" y="0">e</tspan><tspan class="cls-44" x="81.11" y="0">s</tspan><tspan class="cls-94" x="87.3" y="0">s</tspan><tspan class="cls-95" x="93.39" y="0">i</tspan><tspan class="cls-96" x="96.45" y="0">n</tspan><tspan x="103.21" y="0">g</tspan><tspan class="cls-75" x="3.03" y="13.2">(</tspan><tspan class="cls-67" x="6.4" y="13.2">e</tspan><tspan class="cls-68" x="12.49" y="13.2">.</tspan><tspan class="cls-76" x="15.47" y="13.2">g</tspan><tspan x="22.24" y="13.2">. a l</tspan><tspan class="cls-97" x="40.58" y="13.2">i</tspan><tspan class="cls-98" x="43.69" y="13.2">v</tspan><tspan class="cls-99" x="49.65" y="13.2">e</tspan><tspan class="cls-100" x="55.99" y="13.2">-</tspan><tspan class="cls-101" x="60.02" y="13.2">u</tspan><tspan class="cls-102" x="66.76" y="13.2">p</tspan><tspan class="cls-41" x="73.58" y="13.2">d</tspan><tspan class="cls-26" x="80.4" y="13.2">a</tspan><tspan class="cls-47" x="86.56" y="13.2">t</tspan><tspan class="cls-34" x="90.35" y="13.2">i</tspan><tspan class="cls-32" x="93.42" y="13.2">n</tspan><tspan x="100.18" y="13.2">g</tspan><tspan class="cls-19" x="18.45" y="26.4">t</tspan><tspan class="cls-103" x="22.25" y="26.4">a</tspan><tspan class="cls-104" x="28.44" y="26.4">b</tspan><tspan class="cls-105" x="35.22" y="26.4">l</tspan><tspan class="cls-106" x="38.37" y="26.4">e</tspan><tspan x="44.48" y="26.4">, </tspan><tspan class="cls-107" x="50.59" y="26.4">p</tspan><tspan class="cls-48" x="57.38" y="26.4">l</tspan><tspan class="cls-72" x="60.48" y="26.4">o</tspan><tspan class="cls-108" x="67.22" y="26.4">t</tspan><tspan x="71.18" y="26.4">, </tspan><tspan class="cls-109" x="77.29" y="26.4">f</tspan><tspan class="cls-110" x="81.18" y="26.4">i</tspan><tspan class="cls-111" x="84.34" y="26.4">t</tspan><tspan x="87.81" y="26.4">)</tspan></text><text class="cls-112" transform="translate(131.24 13)">b<tspan class="cls-113" x="6.85" y="0">l</tspan><tspan class="cls-114" x="9.99" y="0">u</tspan><tspan class="cls-115" x="16.8" y="0">e</tspan><tspan class="cls-116" x="23.2" y="0">s</tspan><tspan class="cls-117" x="29.42" y="0">k</tspan><tspan class="cls-118" x="35.94" y="0">y</tspan></text><text class="cls-119" transform="translate(381.48 174.77)">d<tspan class="cls-120" x="6.86" y="0">a</tspan><tspan class="cls-121" x="13.04" y="0">t</tspan><tspan class="cls-122" x="16.91" y="0">a</tspan><tspan class="cls-123" x="23.14" y="0">b</tspan><tspan class="cls-124" x="30.03" y="0">r</tspan><tspan class="cls-102" x="34.5" y="0">o</tspan><tspan class="cls-125" x="41.32" y="0">k</tspan><tspan class="cls-126" x="47.38" y="0">e</tspan><tspan class="cls-118" x="53.71" y="0">r</tspan></text><text class="cls-9" transform="translate(383.24 225.66)"><tspan class="cls-42">D</tspan><tspan class="cls-26" x="7.96" y="0">a</tspan><tspan class="cls-127" x="14.12" y="0">t</tspan><tspan class="cls-40" x="17.92" y="0">a</tspan><tspan class="cls-15" x="24.12" y="0">b</tspan><tspan class="cls-128" x="30.89" y="0">a</tspan><tspan class="cls-129" x="37.1" y="0">s</tspan><tspan class="cls-93" x="43.21" y="0">e</tspan><tspan x="49.4" y="0">s</tspan></text><text class="cls-9" transform="translate(365.16 267.31)"><tspan class="cls-63">L</tspan><tspan class="cls-40" x="6.84" y="0">a</tspan><tspan class="cls-31" x="13.03" y="0">r</tspan><tspan class="cls-130" x="17.32" y="0">g</tspan><tspan x="24.17" y="0">e </tspan><tspan class="cls-131" x="33.35" y="0">f</tspan><tspan x="37.24" y="0">i</tspan><tspan class="cls-132" x="40.29" y="0">l</tspan><tspan x="43.44" y="0">e </tspan><tspan class="cls-42" x="52.62" y="0">s</tspan><tspan class="cls-80" x="58.75" y="0">t</tspan><tspan class="cls-44" x="62.44" y="0">or</tspan><tspan class="cls-45" x="73.57" y="0">a</tspan><tspan class="cls-130" x="79.71" y="0">g</tspan><tspan x="86.55" y="0">e</tspan></text></g><g id="Side_Text_-_less" data-name="Side Text - less"><text class="cls-133" transform="matrix(1, 0.01, -0.01, 1, 33, 118.09)">I<tspan class="cls-134" x="2.65" y="0">n</tspan><tspan class="cls-135" x="7.72" y="0">t</tspan><tspan class="cls-136" x="10.31" y="0">e</tspan><tspan class="cls-137" x="15.48" y="0">r</tspan><tspan class="cls-138" x="18.65" y="0">a</tspan><tspan class="cls-139" x="23.76" y="0">c</tspan><tspan class="cls-140" x="28.5" y="0">t</tspan><tspan class="cls-135" x="31.2" y="0">s </tspan><tspan class="cls-141" x="38.38" y="0">w</tspan><tspan class="cls-142" x="45.07" y="0">i</tspan><tspan class="cls-143" x="47.2" y="0">t</tspan><tspan class="cls-135" x="49.89" y="0">h</tspan><tspan class="cls-144"><tspan x="16.39" y="10">ha</tspan><tspan class="cls-145" x="26.68" y="10">r</tspan><tspan class="cls-146" x="29.84" y="10">d</tspan><tspan class="cls-147" x="35.02" y="10">w</tspan><tspan class="cls-148" x="41.6" y="10">a</tspan><tspan class="cls-149" x="46.75" y="10">r</tspan><tspan class="cls-135" x="49.89" y="10">e</tspan></tspan></text><text class="cls-150" transform="matrix(1, 0.01, -0.01, 1, 133.8, 60.15)">“<tspan class="cls-151" x="3.36" y="0">D</tspan><tspan class="cls-152" x="10.08" y="0">o</tspan><tspan class="cls-153" x="15.27" y="0">c</tspan><tspan class="cls-154" x="20" y="0">u</tspan><tspan class="cls-155" x="25.12" y="0">m</tspan><tspan class="cls-156" x="32.79" y="0">e</tspan><tspan class="cls-134" x="37.94" y="0">n</tspan><tspan class="cls-157" x="43.02" y="0">t</tspan><tspan class="cls-158" x="45.72" y="0">s</tspan><tspan class="cls-135" x="50.29" y="0">” </tspan><tspan class="cls-141" x="55.97" y="0">w</tspan><tspan class="cls-142" x="62.65" y="0">i</tspan><tspan class="cls-143" x="64.79" y="0">t</tspan><tspan class="cls-135" x="67.48" y="0">h</tspan><tspan class="cls-159"><tspan x="-8.37" y="10">la</tspan><tspan class="cls-160" x="-1.1" y="10">be</tspan><tspan class="cls-161" x="9.25" y="10">l</tspan><tspan class="cls-137" x="11.41" y="10">e</tspan><tspan class="cls-162" x="16.59" y="10">d </tspan><tspan class="cls-155" x="24.28" y="10">m</tspan><tspan class="cls-163" x="31.94" y="10">e</tspan><tspan class="cls-164" x="37.02" y="10">t</tspan><tspan class="cls-165" x="39.75" y="10">ad</tspan><tspan class="cls-135" x="50.03" y="10">a</tspan><tspan class="cls-164" x="55.12" y="10">t</tspan><tspan class="cls-162" x="57.86" y="10">a </tspan><tspan x="65.55" y="10">a</tspan><tspan class="cls-166" x="70.69" y="10">n</tspan><tspan class="cls-135" x="75.85" y="10">d</tspan></tspan><tspan class="cls-165"><tspan x="-4.48" y="20">d</tspan><tspan class="cls-162" x="0.66" y="20">a</tspan><tspan class="cls-164" x="5.75" y="20">t</tspan><tspan class="cls-135" x="8.49" y="20">a </tspan><tspan class="cls-167" x="16.18" y="20">a</tspan><tspan class="cls-149" x="21.32" y="20">r</tspan><tspan class="cls-135" x="24.46" y="20">e </tspan><tspan class="cls-168" x="32.15" y="20">d</tspan><tspan class="cls-169" x="37.27" y="20">i</tspan><tspan class="cls-167" x="39.43" y="20">sp</tspan><tspan class="cls-135" x="49.21" y="20">a</tspan><tspan class="cls-170" x="54.3" y="20">t</tspan><tspan class="cls-171" x="56.89" y="20">c</tspan><tspan class="cls-172" x="61.62" y="20">h</tspan><tspan class="cls-173" x="66.78" y="20">e</tspan><tspan class="cls-135" x="71.96" y="20">d</tspan></tspan></text><text class="cls-174" transform="matrix(1, 0.01, -0.01, 1, 45.47, 217.13)">S<tspan class="cls-175" x="6.82" y="0">e</tspan><tspan class="cls-176" x="12.41" y="0">t </tspan><tspan class="cls-177" x="18.17" y="0">v</tspan><tspan class="cls-178" x="23.16" y="0">a</tspan><tspan class="cls-179" x="28.84" y="0">l</tspan><tspan class="cls-138" x="31.16" y="0">u</tspan><tspan class="cls-179" x="36.84" y="0">e</tspan></text><text class="cls-180" transform="matrix(1, 0.01, -0.01, 1, 123.15, 217.51)">R<tspan class="cls-181" x="7.23" y="0">e</tspan><tspan class="cls-176" x="12.92" y="0">ad </tspan><tspan class="cls-177" x="27.12" y="0">v</tspan><tspan class="cls-178" x="32.12" y="0">a</tspan><tspan class="cls-179" x="37.79" y="0">l</tspan><tspan class="cls-138" x="40.11" y="0">u</tspan><tspan class="cls-179" x="45.8" y="0">e</tspan></text><text class="cls-182" transform="matrix(1, 0.01, -0.01, 1, 184.65, 260.71)">L<tspan class="cls-183" x="5.77" y="0">a</tspan><tspan class="cls-184" x="11.45" y="0">rg</tspan><tspan class="cls-179" x="20.64" y="0">e </tspan><tspan class="cls-185" x="29.18" y="0">d</tspan><tspan class="cls-175" x="34.85" y="0">e</tspan><tspan class="cls-186" x="40.45" y="0">t</tspan><tspan class="cls-187" x="43.28" y="0">e</tspan><tspan class="cls-188" x="48.99" y="0">c</tspan><tspan class="cls-189" x="54.21" y="0">t</tspan><tspan class="cls-190" x="57.05" y="0">o</tspan><tspan class="cls-191" x="62.77" y="0">r</tspan><tspan class="cls-179" x="66.33" y="0">s </tspan><tspan class="cls-192" x="74.31" y="0">w</tspan><tspan class="cls-193" x="81.7" y="0">r</tspan><tspan class="cls-194" x="85.29" y="0">i</tspan><tspan class="cls-195" x="87.62" y="0">t</tspan><tspan class="cls-176" x="90.46" y="0">e</tspan><tspan class="cls-196"><tspan x="15.46" y="10">d</tspan><tspan class="cls-178" x="21.1" y="10">i</tspan><tspan class="cls-197" x="23.43" y="10">r</tspan><tspan class="cls-187" x="26.88" y="10">e</tspan><tspan class="cls-188" x="32.59" y="10">c</tspan><tspan class="cls-198" x="37.81" y="10">t</tspan><tspan class="cls-179" x="40.77" y="10">ly </tspan><tspan class="cls-199" x="51.07" y="10">t</tspan><tspan class="cls-176" x="53.91" y="10">o </tspan><tspan x="62.45" y="10">d</tspan><tspan class="cls-200" x="68.09" y="10">i</tspan><tspan class="cls-201" x="70.45" y="10">s</tspan><tspan class="cls-176" x="75.56" y="10">k</tspan></tspan></text><text class="cls-202" transform="matrix(1, 0.01, -0.01, 1, 307.93, 30.04)">P<tspan class="cls-203" x="6.73" y="0">r</tspan><tspan class="cls-204" x="10.2" y="0">o</tspan><tspan class="cls-205" x="15.91" y="0">m</tspan><tspan class="cls-206" x="24.37" y="0">p</tspan><tspan class="cls-179" x="29.97" y="0">t </tspan><tspan class="cls-207" x="35.73" y="0">f</tspan><tspan class="cls-208" x="38.58" y="0">e</tspan><tspan class="cls-209" x="44.29" y="0">e</tspan><tspan class="cls-210" x="50" y="0">d</tspan><tspan class="cls-176" x="55.65" y="0">b</tspan><tspan class="cls-211" x="61.31" y="0">a</tspan><tspan class="cls-212" x="66.95" y="0">c</tspan><tspan class="cls-179" x="72.16" y="0">k</tspan></text></g></svg>